<?xml version="1.0" standalone="no"?>
<!DOCTYPE svg PUBLIC "-//W3C//DTD SVG 20010904//EN"
 "http://www.w3.org/TR/2001/REC-SVG-20010904/DTD/svg10.dtd">
<svg version="1.0" xmlns="http://www.w3.org/2000/svg"
 width="400.000000pt" height="400.000000pt" viewBox="0 0 400.000000 400.000000"
 preserveAspectRatio="xMidYMid meet">
<metadata>
Created by potrace 1.14, written by Peter Selinger 2001-2017
</metadata>
<g transform="translate(0.000000,400.000000) scale(0.100000,-0.100000)"
fill="#000000" stroke="none">
<path d="M1470 3335 c-12 -14 -12 -18 1 -25 10 -7 15 -5 17 5 6 28 -3 38 -18
20z"/>
<path d="M1040 3240 c0 -15 21 -23 32 -12 6 6 2 11 -11 15 -12 3 -21 1 -21 -3z"/>
<path d="M1362 3178 c-15 -15 -16 -75 -1 -117 13 -36 41 -55 69 -46 16 5 20
15 20 53 0 84 -51 147 -88 110z m44 -24 c-3 -9 -6 -20 -6 -25 0 -5 -9 -9 -20
-9 -23 0 -24 4 -10 31 13 23 45 26 36 3z m28 -93 c7 -11 -22 -23 -35 -15 -5 3
-9 9 -9 15 0 12 37 12 44 0z"/>
<path d="M1131 3151 c-23 -43 -6 -143 29 -161 12 -6 23 -5 35 4 14 10 17 23
13 62 -8 89 -52 143 -77 95z m39 -36 c0 -8 -7 -15 -15 -15 -8 0 -15 7 -15 15
0 8 7 15 15 15 8 0 15 -7 15 -15z m10 -80 c0 -8 -7 -15 -15 -15 -8 0 -15 7
-15 15 0 8 7 15 15 15 8 0 15 -7 15 -15z"/>
<path d="M1274 2996 c-8 -32 2 -46 31 -46 33 0 40 16 21 45 -21 32 -44 32 -52
1z"/>
<path d="M1674 2915 c-14 -14 -29 -25 -35 -25 -5 0 -21 -7 -34 -16 -34 -22
-32 -52 10 -133 37 -70 44 -106 23 -114 -10 -3 -9 -18 5 -69 32 -124 18 -143
-31 -43 -27 55 -39 69 -77 87 -43 21 -46 21 -80 5 -61 -29 -164 -15 -177 25
-3 8 -17 5 -49 -10 -25 -12 -53 -22 -62 -22 -26 0 -94 -66 -117 -116 -20 -41
-22 -56 -18 -192 4 -113 10 -161 26 -208 11 -33 23 -86 27 -117 6 -46 4 -61
-12 -84 -32 -46 -46 -91 -39 -125 3 -17 1 -57 -5 -87 -7 -37 -7 -70 -1 -98
l10 -42 -49 -20 c-26 -12 -52 -21 -57 -21 -5 0 -16 -8 -25 -18 -19 -21 -20
-51 -13 -450 5 -325 9 -345 73 -388 94 -62 281 -76 708 -53 143 7 316 9 495 4
151 -4 322 -7 380 -6 111 1 248 18 266 32 13 10 72 1 80 -12 3 -5 25 -9 49 -9
42 0 46 2 61 37 19 47 64 237 75 318 41 313 35 470 -18 512 l-28 23 -4 157
c-2 87 2 268 9 403 l12 245 -26 145 c-39 218 -111 352 -217 405 -123 63 -242
95 -349 95 -86 0 -130 -8 -255 -47 -98 -31 -148 -63 -171 -111 -15 -33 -16
-48 -7 -127 6 -49 9 -119 6 -155 -3 -36 2 -212 11 -392 9 -181 16 -353 16
-383 l0 -55 -32 0 c-18 0 -82 -7 -143 -15 -147 -20 -137 -22 -120 26 19 54 20
49 -19 106 -31 45 -32 50 -18 71 13 20 11 27 -26 89 -39 64 -62 134 -77 231
-7 45 -2 51 26 26 10 -9 38 -19 62 -21 44 -5 44 -5 85 52 23 31 48 79 57 105
9 27 23 54 31 60 7 7 14 25 14 40 0 15 7 41 15 56 8 16 15 44 15 62 0 43 -39
134 -54 126 -6 -3 -4 0 5 8 9 7 18 36 22 64 10 90 -34 154 -107 154 -13 0 -31
9 -41 20 -24 27 -51 25 -81 -5z m922 -134 c54 -25 94 -102 101 -195 5 -55 3
-65 -13 -74 -11 -5 -116 -12 -234 -15 -246 -8 -266 -4 -263 51 0 18 16 69 33
113 28 69 38 82 71 100 84 42 234 52 305 20z m-71 -661 c12 -19 18 -156 10
-245 l-7 -87 -54 4 c-30 3 -57 8 -60 11 -4 4 -9 79 -12 167 l-5 160 61 0 c34
0 64 -5 67 -10z m53 -739 c49 -25 74 -54 110 -126 38 -77 47 -134 33 -225 -19
-118 -45 -166 -114 -211 -69 -45 -112 -55 -161 -39 -120 39 -200 185 -199 365
1 133 33 192 128 236 55 25 154 25 203 0z m-633 -53 c128 1 132 -2 136 -111 6
-179 4 -289 -7 -298 -15 -12 -145 -15 -286 -5 l-117 8 16 21 c14 20 26 22 102
22 78 0 88 -2 105 -24 16 -19 26 -22 58 -18 21 3 54 17 73 32 31 23 35 31 35
73 -1 56 -12 111 -40 186 -18 46 -27 58 -63 75 -47 22 -103 31 -100 16 1 -6
-27 -10 -67 -10 -66 0 -74 5 -56 33 6 10 21 12 60 6 28 -3 96 -6 151 -6z
m-248 -14 c-3 -3 -12 -4 -19 -1 -8 3 -5 6 6 6 11 1 17 -2 13 -5z m-88 -29
c-27 -15 -51 -59 -74 -140 l-15 -50 6 80 c3 44 9 82 15 83 5 2 15 10 22 17 12
12 38 22 62 23 6 1 -2 -5 -16 -13z m-362 -34 c62 -29 131 -97 166 -166 25 -50
31 -75 35 -145 3 -81 2 -87 -27 -132 -56 -88 -131 -110 -223 -65 -141 69 -206
209 -183 392 7 58 39 109 79 125 36 15 109 10 153 -9z m481 -133 c18 -18 15
-56 -5 -66 -23 -12 -40 -5 -53 19 -22 39 27 78 58 47z m172 -3 c15 -19 6 -61
-16 -69 -20 -8 -54 20 -54 44 0 36 46 53 70 25z m-383 -82 c-3 -10 -5 -4 -5
12 0 17 2 24 5 18 2 -7 2 -21 0 -30z m88 -107 l40 -14 -43 3 c-54 5 -92 28
-92 57 0 21 1 21 28 -5 15 -15 45 -33 67 -41z"/>
<path d="M2408 1379 c-20 -6 -55 -26 -77 -45 -65 -56 -87 -166 -60 -296 12
-59 66 -168 82 -168 6 0 25 -15 42 -34 33 -36 85 -53 127 -42 13 3 48 20 78
38 48 29 58 41 79 93 20 49 25 78 25 160 1 95 -1 103 -34 170 -44 86 -90 122
-170 129 -30 3 -71 0 -92 -5z m138 -244 c7 -19 14 -42 14 -51 0 -53 -87 -76
-108 -29 -16 34 -15 50 3 85 12 23 22 30 46 30 25 0 33 -6 45 -35z"/>
<path d="M1078 1230 c-32 -24 -48 -86 -48 -179 0 -133 59 -234 165 -285 97
-45 165 -29 212 51 95 162 -60 433 -248 433 -41 0 -63 -5 -81 -20z m162 -195
c70 -36 63 -115 -10 -115 -58 0 -98 100 -47 120 12 5 23 9 25 9 2 1 16 -6 32
-14z"/>
<path d="M1331 2874 c-19 -13 -42 -24 -52 -24 -11 0 -19 -4 -19 -10 0 -5 8
-10 18 -10 22 0 94 42 100 58 6 18 -8 14 -47 -14z"/>
</g>
</svg>
